<svg xmlns="http://www.w3.org/2000/svg" version="1.0" width="1024.000000pt" height="1024.000000pt" viewBox="0 0 1024.000000 1024.000000" preserveAspectRatio="xMidYMid meet">

<g transform="translate(0.000000,1024.000000) scale(0.100000,-0.100000)" fill="#ffffff" stroke="none">
<path d="M690 5889 c30 -28 64 -55 75 -60 11 -4 270 -6 577 -2 l556 5 4 -57 c1 -31 1 -59 -1 -61 -2 -2 -245 -4 -538 -4 -369 0 -532 -3 -528 -10 4 -6 29 -29 57 -50 l50 -40 328 0 c229 0 331 -3 336 -11 3 -6 9 -259 11 -563 5 -549 5 -551 29 -633 14 -46 28 -83 33 -83 20 0 35 150 40 397 l6 262 40 -22 40 -23 5 -184 5 -184 53 80 52 80 0 477 0 477 175 0 c204 0 189 12 155 -128 -26 -106 -25 -108 8 -77 15 15 134 124 265 242 130 119 237 217 237 219 0 2 -478 4 -1062 4 l-1063 -1 55 -50z" fill="#ffffff"/>
<path d="M3011 5738 c-25 -60 -261 -606 -440 -1018 -82 -190 -147 -348 -144 -352 2 -5 51 -8 108 -8 l103 0 34 83 c19 45 48 115 64 154 l29 73 345 0 346 0 60 -147 60 -148 112 -3 c62 -1 112 0 112 3 0 3 -85 204 -188 448 -104 243 -237 558 -297 700 l-109 257 -88 0 -89 0 -18 -42z m190 -464 c34 -82 85 -205 114 -274 l53 -125 -250 -3 c-138 -1 -252 -1 -254 1 -3 3 66 171 201 485 57 133 42 142 136 -84z" fill="#ffffff"/>
<path d="M4050 5070 l0 -710 379 0 c208 0 400 4 427 9 106 20 166 51 235 120 84 85 109 145 109 267 0 137 -44 233 -144 311 l-46 35 45 52 c62 70 88 140 88 241 1 95 -11 141 -55 215 -41 68 -111 122 -195 149 -60 20 -85 21 -453 21 l-390 0 0 -710z m787 505 c50 -21 72 -42 94 -90 40 -86 15 -207 -52 -258 -56 -42 -97 -47 -366 -47 l-253 0 0 205 0 205 270 0 c221 0 277 -3 307 -15z m63 -615 c117 -66 147 -235 59 -334 -57 -66 -88 -71 -409 -71 l-285 0 -3 218 -2 218 297 -3 c297 -3 298 -3 343 -28z" fill="#ffffff"/>
<path d="M5958 5743 c-8 -21 -143 -333 -298 -693 -155 -360 -285 -663 -287 -672 -5 -15 6 -17 96 -16 57 1 107 6 115 12 7 6 40 75 72 154 l58 142 350 -2 350 -3 60 -147 61 -148 114 0 c86 0 112 3 108 13 -2 6 -64 149 -137 317 -73 168 -208 478 -300 690 l-167 385 -90 3 -90 3 -15 -38z m235 -575 l126 -293 -251 -3 c-138 -1 -253 -1 -255 1 -1 2 47 123 108 268 61 145 116 276 122 292 6 15 14 27 18 27 4 0 63 -132 132 -292z" fill="#ffffff"/>
<path d="M6982 5073 l3 -708 105 0 105 0 3 268 2 267 162 -2 161 -3 177 -264 178 -265 113 3 c63 1 116 4 118 6 2 2 -32 56 -75 120 -44 63 -125 184 -182 267 l-102 152 58 21 c32 12 74 31 94 43 57 35 127 118 161 190 30 62 32 75 32 172 0 126 -17 183 -80 269 -48 65 -104 108 -186 143 -53 22 -64 23 -452 26 l-399 3 4 -708z m814 482 c30 -19 60 -49 79 -79 27 -44 30 -58 30 -125 -1 -112 -42 -182 -140 -235 -37 -20 -56 -21 -302 -24 l-263 -3 -2 193 c-1 106 -3 216 -3 243 -1 28 0 54 3 58 2 5 126 7 276 5 l273 -3 49 -30z" fill="#ffffff"/>
<path d="M8362 5073 l3 -708 103 -3 102 -3 0 228 0 228 114 114 113 113 238 -309 c131 -169 250 -323 264 -341 l26 -33 123 2 c67 0 122 4 122 8 0 3 -42 60 -93 126 -440 569 -527 683 -527 695 0 4 135 138 300 296 165 158 300 289 300 291 0 1 -60 3 -133 3 l-133 0 -244 -238 c-392 -380 -451 -437 -461 -440 -5 -2 -9 133 -9 337 l0 341 -105 0 -105 0 2 -707z" fill="#ffffff"/>
<path d="M1043 5435 l58 -55 149 0 150 0 0 -328 0 -327 48 -67 c26 -37 50 -68 55 -68 4 0 6 201 5 448 l-3 447 -260 2 -260 2 58 -54z" fill="#ffffff"/>
</g>
</svg>