<svg version="1.2" xmlns="http://www.w3.org/2000/svg" viewBox="0 0 1024 1024" width="1024" height="1024">
	<title>file-svg</title>
	<style>
		.s0 { fill: #fbfbfb } 
		.s1 { fill: #000000 } 
		.s2 { fill: #fffafa } 
	</style>
	<g id="Layer">
		<path id="Layer" class="s0" d="m47.4 204.5c13.8 12.9 29.5 25.4 34.5 27.7 5.1 1.8 124.5 2.8 266.1 0.9l256.4-2.3 1.8 26.3c0.5 14.3 0.5 27.2-0.4 28.1-1 0.9-113 1.9-248.1 1.9-170.2 0-245.3 1.3-243.5 4.6 1.9 2.7 13.4 13.3 26.3 23l23.1 18.5h151.2c105.6 0 152.6 1.3 154.9 5 1.4 2.8 4.2 119.5 5.1 259.6 2.3 253.2 2.3 254.1 13.4 291.9 6.4 21.2 12.9 38.3 15.2 38.3 9.2 0 16.1-69.2 18.4-183.1l2.8-120.8 18.5 10.2 18.4 10.6 2.3 84.8 2.3 84.9 24.5-36.9 23.9-36.9v-220-219.9h80.7c94.1 0 87.2-5.5 71.5 59-12 48.9-11.5 49.8 3.7 35.5 6.9-6.9 61.8-57.2 122.2-111.6 59.9-54.8 109.3-100 109.3-101 0-0.9-220.5-1.8-489.7-1.8l-490.2 0.5z"/>
		<path id="Layer" fill-rule="evenodd" class="s1" d="m1202.5 566.8h17.7l10.9 25.7c6 14.2 19.3 45.7 29.7 70 10.3 24.4 18.8 44.5 18.8 44.8 0 0.3-5 0.4-11.2 0.3l-11.2-0.3-6-14.8-6-14.7h-69.1l-2.9 7.3c-1.6 3.9-4.5 10.9-6.4 15.4l-3.4 8.3h-10.3c-5.7 0-10.6-0.3-10.8-0.8-0.3-0.4 6.2-16.2 14.4-35.2 17.9-41.2 41.5-95.8 44-101.8zm3.6 42.2c-13.5 31.4-20.4 48.2-20.1 48.5 0.2 0.2 11.6 0.2 25.4 0.1l25-0.3-5.3-12.5c-2.9-6.9-8-19.2-11.4-27.4-9.4-22.6-7.9-21.7-13.6-8.4z"/>
		<path id="Layer" fill-rule="evenodd" class="s1" d="m1383.9 604.6h39c36.8 0 39.3 0.1 45.3 2.1 8.4 2.7 15.4 8.1 19.5 14.9 4.4 7.4 5.6 12 5.5 21.5 0 10.1-2.6 17.1-8.8 24.1l-4.5 5.2 4.6 3.5c10 7.8 14.4 17.4 14.4 31.1 0 12.2-2.5 18.2-10.9 26.7-6.9 6.9-12.9 10-23.5 12-2.7 0.5-21.9 0.9-42.7 0.9h-37.9zm48 19h-27v41h25.3c26.9 0 31-0.5 36.6-4.7 6.7-5.1 9.2-17.2 5.2-25.8-2.2-4.8-4.4-6.9-9.4-9-3-1.2-8.6-1.5-30.7-1.5zm2.7 60.2l-29.7-0.3 0.2 21.8 0.3 21.8h28.5c32.1 0 35.2-0.5 40.9-7.1 8.8-9.9 5.8-26.8-5.9-33.4-4.5-2.5-4.6-2.5-34.3-2.8z"/>
		<path id="Layer" fill-rule="evenodd" class="s1" d="m1143.6 152l18 0.6 16.7 38.5c9.2 21.2 22.7 52.2 30 69 7.3 16.8 13.5 31.1 13.7 31.7 0.4 1-2.2 1.3-10.8 1.3h-11.4l-6.1-14.8-6-14.7-35-0.3-35-0.2-5.8 14.2c-3.2 7.9-6.5 14.8-7.2 15.4-0.8 0.6-5.8 1.1-11.5 1.2-9 0.1-10.1-0.1-9.6-1.6 0.2-0.9 13.2-31.2 28.7-67.2 15.5-36 29-67.2 29.8-69.3zm8.8 32.1c-0.4 0-1.2 1.2-1.8 2.7-0.6 1.6-6.1 14.7-12.2 29.2-6.1 14.5-10.9 26.6-10.8 26.8 0.2 0.2 11.7 0.2 25.5 0.1l25.1-0.3-12.6-29.3c-6.9-16-12.8-29.2-13.2-29.2z"/>
		<path id="Layer" fill-rule="evenodd" class="s1" d="m1211.6 310.7l39.9 0.3c38.8 0.3 39.9 0.4 45.2 2.6 8.2 3.5 13.8 7.8 18.6 14.3 6.3 8.6 8 14.3 8 26.9 0 9.7-0.2 11-3.2 17.2-3.4 7.2-10.4 15.5-16.1 19-2 1.2-6.2 3.1-9.4 4.3l-5.8 2.1 10.2 15.2c5.7 8.3 13.8 20.4 18.2 26.7 4.3 6.4 7.7 11.8 7.5 12-0.2 0.2-5.5 0.5-11.8 0.6l-11.3 0.3-17.8-26.5-17.7-26.4-16.1-0.3-16.2-0.2-0.2 26.7-0.3 26.8h-21l-0.3-70.8zm76.9 19.6l-27.3-0.3c-15-0.2-27.4 0-27.6 0.5-0.3 0.4-0.4 3-0.3 5.8 0 2.7 0.2 13.7 0.3 24.3l0.2 19.3 26.3-0.3c24.6-0.3 26.5-0.4 30.2-2.4 9.8-5.3 13.9-12.3 14-23.5 0-6.7-0.3-8.1-3-12.5-1.9-3-4.9-6-7.9-7.9z"/>
		<path id="Layer" class="s1" d="m1389.7 464.4l0.3 70.8 10.3 0.3 10.2 0.3v-22.8-22.8l11.4-11.4 11.3-11.3 23.8 30.9c13.1 16.9 25 32.3 26.4 34.1l2.6 3.3 12.3-0.2c6.7 0 12.2-0.4 12.2-0.8 0-0.3-4.2-6-9.3-12.6-44-56.9-52.7-68.3-52.7-69.5 0-0.4 13.5-13.8 30-29.6 16.5-15.8 30-28.9 30-29.1 0-0.1-6-0.3-13.3-0.3h-13.3l-24.4 23.8c-39.2 38-45.1 43.7-46.1 44-0.5 0.2-0.9-13.3-0.9-33.7v-34.1h-10.5-10.5z"/>
		<path id="Layer" class="s2" d="m409 464.3l5.8 5.5h14.9 15v32.8 32.7l4.8 6.7c2.6 3.7 5 6.8 5.5 6.8 0.4 0 0.6-20.1 0.5-44.8l-0.3-44.7-26-0.2-26-0.2z"/>
	</g>
</svg>